<svg display="block" role="presentation" viewBox="0 0 222 157" xmlns="http://www.w3.org/2000/svg"><path d="M 35.345 7.573 C 35.286 5.029 35.005 2.495 34.503 0 L 0 0 L 0 14.306 L 19.358 14.306 C 19.023 16.551 18.231 18.703 17.031 20.63 C 15.832 22.557 14.249 24.217 12.383 25.509 L 12.383 34.831 L 24.372 34.831 C 28.003 31.306 30.856 27.06 32.747 22.366 C 34.639 17.672 35.527 12.634 35.355 7.576 Z" fill="rgb(66, 132, 244)" height="34.8312px" id="iTeN8YKta" transform="translate(110.841 49.188)" width="35.37596207853876px"/><path d="M 32.988 29.981 C 41.985 30.232 50.739 27.034 57.456 21.042 L 45.476 11.72 C 42.621 13.556 39.384 14.714 36.013 15.107 C 32.641 15.5 29.225 15.116 26.025 13.985 C 22.825 12.853 19.926 11.005 17.55 8.581 C 15.174 6.157 13.384 3.222 12.317 0 L 0 0 L 0 9.601 C 3.066 15.725 7.776 20.874 13.602 24.473 C 19.428 28.072 26.14 29.979 32.988 29.981 Z" fill="rgb(52, 168, 83)" height="29.994653474273697px" id="alBKOokP8" transform="translate(77.745 62.971)" width="57.45639999999999px"/><path d="M 16.266 23.684 C 14.739 19.114 14.739 14.171 16.266 9.601 L 16.266 0 L 3.933 0 C 1.347 5.161 0 10.854 0 16.627 C 0 22.4 1.347 28.094 3.933 33.255 L 16.251 23.653 Z" fill="rgb(251, 188, 4)" height="33.254599999999996px" id="NBWr06XQC" transform="translate(73.796 39.277)" width="16.26599999999999px"/><path d="M 32.985 14.73 C 38.238 14.646 43.312 16.635 47.108 20.267 L 57.691 9.653 C 51.018 3.357 42.162 -0.103 32.988 0.002 C 26.138 0.006 19.424 1.916 13.598 5.519 C 7.772 9.123 3.063 14.276 0 20.404 L 12.318 30.005 C 13.73 25.616 16.485 21.781 20.193 19.041 C 23.9 16.3 28.375 14.792 32.985 14.73 Z" fill="rgb(234, 67, 53)" height="30.004934854784448px" id="BVTgkyieh" transform="translate(77.748 18.892)" width="57.6913px"/><path d="M 9.314 18.763 C 7.676 18.772 6.065 18.344 4.647 17.524 C 3.238 16.72 2.068 15.556 1.256 14.151 C 0.433 12.698 0 11.055 0 9.385 C 0 7.714 0.433 6.072 1.256 4.618 C 2.069 3.204 3.242 2.032 4.657 1.22 C 6.072 0.409 7.677 -0.012 9.308 0 C 10.581 -0.008 11.843 0.23 13.025 0.7 C 14.13 1.129 15.119 1.811 15.912 2.692 L 16.045 2.844 L 14.236 4.652 L 14.087 4.466 C 13.54 3.798 12.836 3.275 12.037 2.946 C 11.179 2.587 10.257 2.406 9.327 2.413 C 8.149 2.406 6.989 2.705 5.96 3.28 C 4.925 3.857 4.063 4.701 3.464 5.724 C 2.848 6.844 2.526 8.102 2.526 9.38 C 2.526 10.658 2.848 11.916 3.464 13.036 C 4.064 14.062 4.93 14.907 5.97 15.483 C 6.919 15.99 7.967 16.282 9.042 16.34 C 10.116 16.398 11.19 16.22 12.189 15.818 C 12.932 15.476 13.603 14.997 14.168 14.405 C 14.591 13.94 14.926 13.402 15.156 12.817 C 15.39 12.22 15.542 11.595 15.608 10.958 L 9.147 10.958 L 9.147 8.592 L 17.974 8.592 L 18.008 8.768 C 18.089 9.202 18.131 9.641 18.135 10.082 C 18.136 11.176 17.958 12.263 17.609 13.3 C 17.262 14.339 16.684 15.285 15.918 16.069 C 15.074 16.964 14.047 17.667 12.908 18.132 C 11.769 18.597 10.544 18.812 9.314 18.763 Z M 9.315 0.425 C 7.758 0.412 6.226 0.813 4.875 1.587 C 3.524 2.361 2.404 3.48 1.627 4.829 C 0.843 6.217 0.431 7.785 0.431 9.38 C 0.431 10.975 0.843 12.543 1.627 13.931 C 2.401 15.275 3.516 16.39 4.861 17.162 C 6.215 17.942 7.752 18.347 9.315 18.336 C 10.484 18.384 11.651 18.181 12.736 17.741 C 13.821 17.301 14.799 16.633 15.605 15.784 C 16.328 15.045 16.873 14.153 17.2 13.173 C 17.535 12.18 17.705 11.139 17.705 10.091 C 17.703 9.735 17.673 9.38 17.615 9.029 L 9.562 9.029 L 9.562 10.537 L 16.066 10.537 L 16.048 10.769 C 15.99 11.525 15.82 12.269 15.543 12.974 C 15.294 13.608 14.932 14.192 14.474 14.697 C 13.871 15.328 13.153 15.84 12.359 16.205 C 11.301 16.634 10.162 16.825 9.022 16.765 C 7.882 16.705 6.769 16.395 5.762 15.858 C 4.655 15.245 3.734 14.346 3.095 13.253 C 2.441 12.068 2.098 10.736 2.098 9.382 C 2.098 8.028 2.441 6.696 3.095 5.51 C 3.735 4.418 4.656 3.517 5.762 2.902 C 6.743 2.365 7.831 2.054 8.948 1.993 C 10.064 1.932 11.18 2.122 12.214 2.549 C 13.003 2.876 13.709 3.376 14.279 4.011 L 15.466 2.825 C 14.739 2.065 13.854 1.474 12.873 1.094 C 11.741 0.643 10.533 0.416 9.315 0.425 Z" fill="rgb(255, 255, 255)" height="18.770081790991064px" id="Rin97LeUa" transform="translate(26.838 113.947)" width="18.13530151348573px"/><path d="M 4.537 17.137 C 3.159 16.347 2.015 15.204 1.226 13.826 C 0.422 12.405 0 10.8 0 9.168 C 0 7.535 0.422 5.931 1.226 4.51 C 2.021 3.13 3.168 1.985 4.549 1.193 C 5.931 0.401 7.497 -0.011 9.09 0 C 10.336 -0.01 11.572 0.222 12.729 0.685 C 13.803 1.101 14.764 1.764 15.535 2.62 L 14.039 4.116 C 13.47 3.42 12.737 2.876 11.905 2.534 C 11.023 2.164 10.075 1.976 9.118 1.982 C 7.903 1.974 6.706 2.282 5.646 2.874 C 4.577 3.469 3.688 4.341 3.072 5.398 C 2.436 6.551 2.103 7.847 2.103 9.163 C 2.103 10.48 2.436 11.775 3.072 12.928 C 3.689 13.988 4.583 14.86 5.658 15.452 C 6.636 15.976 7.718 16.278 8.825 16.338 C 9.933 16.397 11.041 16.212 12.069 15.796 C 12.838 15.444 13.533 14.949 14.117 14.337 C 14.557 13.851 14.905 13.29 15.145 12.68 C 15.416 11.994 15.581 11.27 15.634 10.534 L 9.13 10.534 L 9.13 8.595 L 17.564 8.595 C 17.643 9.016 17.684 9.443 17.688 9.871 C 17.689 10.942 17.514 12.006 17.17 13.021 C 16.835 14.03 16.274 14.95 15.529 15.709 C 14.705 16.583 13.703 17.27 12.59 17.722 C 11.478 18.174 10.28 18.381 9.081 18.329 C 7.487 18.342 5.919 17.93 4.537 17.137 Z" fill="rgb(255, 255, 255)" height="18.33715435101506px" id="dIubCU3PF" transform="translate(27.053 114.158)" width="17.68770614012606px"/><path d="M 3.113 12.407 C 2.143 11.831 1.35 11 0.821 10.003 C 0.282 8.966 0 7.814 0 6.644 C 0 5.475 0.282 4.323 0.821 3.285 C 1.351 2.29 2.144 1.458 3.113 0.882 C 4.12 0.304 5.261 0 6.423 0 C 7.584 0 8.725 0.304 9.732 0.882 C 10.701 1.459 11.494 2.29 12.024 3.285 C 12.564 4.323 12.845 5.475 12.845 6.644 C 12.845 7.814 12.564 8.966 12.024 10.003 C 11.495 10.999 10.702 11.831 9.732 12.407 C 8.725 12.985 7.584 13.289 6.423 13.289 C 5.261 13.289 4.12 12.985 3.113 12.407 Z M 8.571 10.827 C 9.243 10.432 9.793 9.86 10.163 9.173 C 10.557 8.39 10.763 7.525 10.763 6.647 C 10.763 5.77 10.557 4.905 10.163 4.122 C 9.793 3.435 9.242 2.863 8.571 2.468 C 7.92 2.088 7.178 1.89 6.424 1.895 C 5.654 1.89 4.897 2.096 4.234 2.488 C 3.571 2.881 3.027 3.447 2.661 4.125 C 2.265 4.908 2.059 5.773 2.059 6.651 C 2.059 7.528 2.265 8.393 2.661 9.176 C 3.032 9.866 3.587 10.439 4.266 10.83 C 4.924 11.212 5.672 11.411 6.434 11.406 C 7.185 11.408 7.923 11.208 8.571 10.827 Z" fill="rgb(255, 255, 255)" height="13.289000000000001px" id="p0Om2bEJh" transform="translate(46.803 119.204)" width="12.845400000000005px"/><path d="M 6.638 13.704 C 5.435 13.719 4.251 13.403 3.216 12.79 C 2.216 12.194 1.397 11.338 0.847 10.312 C 0.29 9.243 0 8.056 0 6.851 C 0 5.646 0.29 4.459 0.847 3.39 C 1.398 2.365 2.217 1.509 3.216 0.912 C 4.257 0.315 5.436 0 6.637 0 C 7.837 0 9.017 0.315 10.058 0.912 C 11.058 1.509 11.878 2.365 12.43 3.39 C 12.986 4.459 13.277 5.646 13.277 6.851 C 13.277 8.056 12.986 9.243 12.43 10.312 C 11.879 11.338 11.059 12.195 10.058 12.79 C 9.023 13.403 7.84 13.719 6.638 13.704 Z M 6.638 0.417 C 5.513 0.402 4.405 0.696 3.436 1.269 C 2.5 1.827 1.734 2.63 1.221 3.591 C 0.7 4.596 0.428 5.712 0.428 6.844 C 0.428 7.975 0.7 9.091 1.221 10.096 C 1.733 11.058 2.499 11.861 3.436 12.418 C 4.41 12.977 5.513 13.271 6.635 13.271 C 7.758 13.271 8.861 12.977 9.835 12.418 C 10.771 11.861 11.537 11.058 12.049 10.096 C 12.571 9.091 12.843 7.975 12.843 6.844 C 12.843 5.712 12.571 4.596 12.049 3.591 C 11.536 2.63 10.771 1.827 9.835 1.269 C 8.867 0.7 7.761 0.408 6.638 0.426 Z M 6.638 11.818 C 5.829 11.822 5.034 11.606 4.338 11.193 C 3.642 10.781 3.071 10.188 2.686 9.476 C 2.272 8.66 2.057 7.758 2.057 6.844 C 2.057 5.929 2.272 5.027 2.686 4.211 C 3.078 3.487 3.662 2.886 4.374 2.473 C 4.892 2.169 5.466 1.973 6.062 1.896 C 6.658 1.819 7.263 1.863 7.841 2.025 C 8.419 2.187 8.959 2.464 9.428 2.84 C 9.896 3.216 10.284 3.682 10.569 4.211 C 10.982 5.027 11.197 5.929 11.197 6.844 C 11.197 7.758 10.982 8.66 10.569 9.476 C 10.179 10.196 9.601 10.796 8.896 11.214 C 8.212 11.616 7.432 11.827 6.638 11.827 Z M 6.638 2.306 C 5.906 2.302 5.187 2.498 4.557 2.871 C 3.927 3.244 3.41 3.781 3.061 4.425 C 2.684 5.176 2.487 6.005 2.487 6.845 C 2.487 7.686 2.684 8.515 3.061 9.266 C 3.415 9.92 3.942 10.465 4.585 10.839 C 5.207 11.196 5.912 11.384 6.629 11.384 C 7.346 11.384 8.051 11.196 8.673 10.839 C 9.312 10.462 9.836 9.918 10.188 9.266 C 10.564 8.514 10.76 7.685 10.76 6.845 C 10.76 6.005 10.564 5.176 10.188 4.425 C 9.836 3.771 9.312 3.227 8.673 2.851 C 8.055 2.494 7.352 2.309 6.638 2.315 Z" fill="rgb(255, 255, 255)" height="13.704510214952531px" id="wZu7hgImN" transform="translate(46.586 118.994)" width="13.276699999999998px"/><path d="M 3.113 12.408 C 2.144 11.832 1.351 11 0.821 10.004 C 0.282 8.967 0 7.815 0 6.645 C 0 5.476 0.282 4.324 0.821 3.286 C 1.352 2.291 2.144 1.46 3.113 0.883 C 4.12 0.305 5.261 0 6.423 0 C 7.584 0 8.725 0.305 9.732 0.883 C 10.702 1.459 11.494 2.291 12.024 3.286 C 12.564 4.324 12.845 5.476 12.845 6.645 C 12.845 7.815 12.564 8.967 12.024 10.004 C 11.495 11.001 10.702 11.832 9.732 12.408 C 8.725 12.986 7.584 13.29 6.423 13.29 C 5.261 13.29 4.12 12.986 3.113 12.408 Z M 8.571 10.828 C 9.244 10.433 9.796 9.861 10.166 9.174 C 10.56 8.391 10.766 7.526 10.766 6.648 C 10.766 5.771 10.56 4.906 10.166 4.123 C 9.795 3.436 9.243 2.864 8.571 2.469 C 7.92 2.089 7.178 1.891 6.424 1.896 C 5.663 1.89 4.915 2.088 4.256 2.469 C 3.577 2.86 3.02 3.433 2.649 4.123 C 2.253 4.906 2.047 5.771 2.047 6.648 C 2.047 7.526 2.253 8.391 2.649 9.174 C 3.02 9.864 3.577 10.437 4.256 10.828 C 4.914 11.21 5.663 11.409 6.424 11.404 C 7.174 11.406 7.911 11.207 8.558 10.828 Z" fill="rgb(255, 255, 255)" height="13.289999999999992px" id="Nh69hbrXe" transform="translate(61.403 119.203)" width="12.845400000000005px"/><path d="M 6.626 13.704 C 5.428 13.716 4.25 13.4 3.219 12.79 C 2.218 12.194 1.398 11.338 0.847 10.312 C 0.29 9.243 0 8.056 0 6.851 C 0 5.646 0.29 4.459 0.847 3.39 C 1.399 2.365 2.219 1.509 3.219 0.912 C 4.259 0.315 5.438 0 6.638 0 C 7.838 0 9.017 0.315 10.058 0.912 C 11.058 1.509 11.878 2.365 12.43 3.39 C 12.986 4.459 13.277 5.646 13.277 6.851 C 13.277 8.056 12.986 9.243 12.43 10.312 C 11.879 11.338 11.059 12.195 10.058 12.79 C 9.02 13.406 7.832 13.722 6.626 13.704 Z M 6.626 0.417 C 5.501 0.402 4.395 0.696 3.426 1.269 C 2.491 1.827 1.725 2.63 1.212 3.591 C 0.691 4.596 0.419 5.712 0.419 6.843 C 0.419 7.975 0.691 9.091 1.212 10.096 C 1.724 11.058 2.49 11.861 3.426 12.418 C 4.4 12.977 5.503 13.27 6.626 13.27 C 7.748 13.27 8.851 12.977 9.825 12.418 C 10.761 11.86 11.527 11.057 12.04 10.096 C 12.56 9.09 12.832 7.975 12.832 6.843 C 12.832 5.712 12.56 4.597 12.04 3.591 C 11.526 2.631 10.76 1.828 9.825 1.269 C 8.856 0.7 7.749 0.408 6.626 0.426 Z M 6.626 11.818 C 5.817 11.822 5.022 11.606 4.326 11.193 C 3.63 10.781 3.059 10.188 2.674 9.476 C 2.259 8.661 2.043 7.759 2.043 6.843 C 2.043 5.928 2.259 5.026 2.674 4.211 C 3.064 3.486 3.649 2.885 4.362 2.473 C 5.049 2.079 5.828 1.872 6.62 1.872 C 7.412 1.872 8.19 2.079 8.878 2.473 C 9.583 2.889 10.162 3.49 10.55 4.211 C 10.964 5.027 11.18 5.929 11.18 6.843 C 11.18 7.758 10.964 8.66 10.55 9.476 C 10.161 10.196 9.582 10.797 8.878 11.214 C 8.195 11.615 7.418 11.827 6.626 11.827 Z M 6.626 2.306 C 5.894 2.302 5.174 2.497 4.544 2.871 C 3.914 3.244 3.397 3.781 3.049 4.425 C 2.671 5.176 2.474 6.004 2.474 6.845 C 2.474 7.686 2.671 8.515 3.049 9.266 C 3.402 9.921 3.931 10.466 4.576 10.839 C 5.198 11.196 5.902 11.384 6.62 11.384 C 7.337 11.384 8.042 11.196 8.664 10.839 C 9.303 10.463 9.827 9.919 10.178 9.266 C 10.556 8.515 10.753 7.686 10.753 6.845 C 10.753 6.004 10.556 5.176 10.178 4.425 C 9.827 3.771 9.303 3.227 8.664 2.851 C 8.045 2.493 7.341 2.308 6.626 2.315 Z" fill="rgb(255, 255, 255)" height="13.704728211505168px" id="pKYW_a23B" transform="translate(61.192 118.994)" width="13.276699999999998px"/><path d="M 2.513 17.574 C 1.624 16.975 0.949 16.107 0.587 15.096 L 2.476 14.288 C 2.75 15 3.234 15.611 3.864 16.041 C 4.539 16.499 5.34 16.735 6.156 16.716 C 6.704 16.75 7.253 16.672 7.77 16.486 C 8.286 16.3 8.759 16.011 9.16 15.635 C 9.535 15.216 9.823 14.726 10.006 14.194 C 10.189 13.662 10.263 13.099 10.225 12.538 L 10.225 11.141 L 10.126 11.141 C 9.692 11.797 9.097 12.33 8.398 12.69 C 7.616 13.1 6.744 13.306 5.861 13.291 C 4.816 13.3 3.79 13.008 2.907 12.448 C 1.999 11.869 1.266 11.055 0.785 10.091 C 0.268 9.018 0 7.843 0 6.652 C 0 5.461 0.268 4.285 0.785 3.212 C 1.263 2.244 1.997 1.425 2.907 0.843 C 3.79 0.283 4.816 -0.009 5.861 0.001 C 6.744 -0.015 7.616 0.192 8.398 0.601 C 9.103 0.966 9.7 1.511 10.126 2.181 L 10.222 2.181 L 10.222 0.391 L 12.208 0.391 L 12.208 12.405 C 12.267 13.249 12.149 14.096 11.86 14.892 C 11.572 15.687 11.119 16.413 10.532 17.023 C 9.419 17.942 8.046 18.49 6.605 18.589 C 5.165 18.688 3.73 18.333 2.501 17.574 Z M 8.2 10.859 C 8.833 10.458 9.342 9.888 9.671 9.215 C 10.056 8.425 10.245 7.554 10.222 6.675 C 10.247 5.788 10.058 4.909 9.671 4.111 C 9.343 3.44 8.833 2.876 8.2 2.481 C 7.579 2.111 6.869 1.915 6.146 1.915 C 5.423 1.915 4.714 2.111 4.093 2.481 C 3.456 2.88 2.942 3.449 2.609 4.123 C 2.225 4.913 2.036 5.784 2.058 6.663 C 2.037 7.545 2.226 8.42 2.609 9.215 C 2.927 9.883 3.43 10.445 4.058 10.835 C 4.686 11.226 5.413 11.428 6.153 11.417 C 6.874 11.43 7.585 11.237 8.2 10.859 Z" fill="rgb(255, 255, 255)" height="18.60511843503378px" id="bXgbhGX1D" transform="translate(75.981 119.187)" width="12.222710819340987px"/><path d="M 6.371 19.021 C 5.034 19.072 3.716 18.698 2.605 17.953 C 1.68 17.326 0.978 16.421 0.601 15.37 L 0.539 15.184 L 2.813 14.208 L 2.893 14.416 C 3.151 15.087 3.607 15.664 4.2 16.07 C 4.84 16.501 5.597 16.723 6.368 16.705 C 6.888 16.737 7.409 16.663 7.899 16.488 C 8.389 16.313 8.839 16.04 9.221 15.686 C 9.574 15.287 9.844 14.822 10.017 14.318 C 10.189 13.814 10.26 13.281 10.224 12.749 L 10.224 11.876 C 9.805 12.378 9.291 12.794 8.713 13.099 C 7.898 13.522 6.991 13.735 6.074 13.719 C 4.989 13.727 3.925 13.423 3.008 12.842 C 2.069 12.242 1.309 11.4 0.809 10.405 C 0.276 9.301 0 8.092 0 6.866 C 0 5.641 0.276 4.431 0.809 3.328 C 1.306 2.327 2.066 1.48 3.008 0.878 C 3.924 0.296 4.989 -0.008 6.074 0.001 C 6.991 -0.015 7.898 0.198 8.713 0.621 C 9.295 0.928 9.809 1.349 10.224 1.86 L 10.224 0.395 L 12.637 0.395 L 12.637 12.629 C 12.694 13.498 12.569 14.37 12.27 15.188 C 11.971 16.007 11.506 16.754 10.903 17.383 C 9.666 18.503 8.038 19.092 6.371 19.021 Z M 1.075 15.416 C 1.443 16.303 2.062 17.063 2.856 17.603 C 3.738 18.298 4.804 18.722 5.923 18.823 C 7.042 18.923 8.167 18.695 9.159 18.168 C 10.151 17.64 10.968 16.835 11.51 15.851 C 12.052 14.867 12.296 13.746 12.213 12.626 L 12.213 0.828 L 10.664 0.828 L 10.664 2.618 L 10.234 2.618 L 10.172 2.519 C 9.763 1.881 9.194 1.362 8.521 1.014 C 7.77 0.622 6.933 0.424 6.086 0.438 C 5.081 0.43 4.095 0.711 3.246 1.25 C 2.37 1.812 1.663 2.602 1.202 3.535 C 0.701 4.578 0.442 5.719 0.442 6.876 C 0.442 8.032 0.701 9.174 1.202 10.216 C 1.668 11.144 2.375 11.929 3.249 12.489 C 4.099 13.025 5.085 13.306 6.09 13.298 C 6.936 13.313 7.773 13.116 8.524 12.725 C 9.191 12.379 9.76 11.868 10.175 11.241 L 10.237 11.142 L 10.667 11.142 L 10.667 12.752 C 10.703 13.34 10.622 13.928 10.429 14.484 C 10.235 15.04 9.933 15.551 9.54 15.989 C 9.119 16.384 8.622 16.69 8.08 16.887 C 7.537 17.084 6.96 17.168 6.384 17.135 C 5.525 17.154 4.682 16.905 3.971 16.423 C 3.369 16.011 2.892 15.441 2.593 14.775 Z M 6.371 11.836 C 5.593 11.847 4.827 11.634 4.165 11.223 C 3.504 10.812 2.974 10.219 2.639 9.516 C 2.24 8.69 2.043 7.782 2.063 6.865 C 2.042 5.952 2.239 5.047 2.639 4.226 C 2.986 3.519 3.522 2.922 4.188 2.501 C 4.843 2.109 5.592 1.902 6.356 1.902 C 7.119 1.902 7.869 2.109 8.524 2.501 C 9.189 2.918 9.725 3.512 10.073 4.217 C 10.472 5.046 10.668 5.959 10.646 6.88 C 10.667 7.793 10.471 8.698 10.073 9.519 C 9.723 10.225 9.188 10.823 8.524 11.247 C 7.876 11.642 7.13 11.846 6.371 11.836 Z M 6.371 2.324 C 5.685 2.318 5.011 2.505 4.426 2.863 C 3.824 3.24 3.338 3.776 3.02 4.412 C 2.652 5.172 2.471 6.008 2.491 6.852 C 2.472 7.701 2.653 8.543 3.02 9.308 C 3.321 9.94 3.796 10.472 4.39 10.842 C 4.984 11.211 5.672 11.403 6.371 11.393 C 7.054 11.4 7.724 11.213 8.304 10.854 C 8.901 10.474 9.383 9.939 9.698 9.305 C 10.066 8.546 10.248 7.709 10.227 6.865 C 10.251 6.008 10.069 5.159 9.698 4.387 C 9.386 3.751 8.904 3.215 8.304 2.838 C 7.72 2.491 7.051 2.313 6.371 2.324 Z" fill="rgb(255, 255, 255)" height="19.02658788325021px" id="qmmrTdiVJ" transform="translate(75.762 118.985)" width="12.650200974998057px"/><path d="M 0 0 L 2.084 0 L 2.084 17.555 L 0 17.555 Z" fill="rgb(255, 255, 255)" height="17.555000000000007px" id="VdsLqyP7Q" transform="translate(91.254 114.548)" width="2.0844000000000023px"/><path d="M 2.512 17.983 L 0 17.983 L 0 0 L 2.512 0 Z M 0.427 17.555 L 2.081 17.555 L 2.081 0.44 L 0.427 0.44 Z" fill="rgb(255, 255, 255)" height="17.983000000000004px" id="pDnyAju3G" transform="translate(91.041 114.334)" width="2.511800000000008px"/><path d="M 3.015 12.444 C 2.071 11.874 1.304 11.055 0.797 10.077 C 0.254 9.025 -0.02 7.854 0.001 6.67 C -0.012 5.516 0.244 4.374 0.748 3.335 C 1.223 2.35 1.956 1.511 2.869 0.91 C 3.817 0.296 4.927 -0.02 6.056 0.002 C 7.174 -0.026 8.277 0.258 9.243 0.823 C 10.137 1.364 10.856 2.151 11.315 3.09 C 11.812 4.121 12.06 5.254 12.04 6.398 C 12.042 6.612 12.017 6.825 11.965 7.033 L 2.086 7.033 C 2.105 7.879 2.34 8.707 2.77 9.436 C 3.143 10.058 3.678 10.567 4.318 10.907 C 4.926 11.229 5.604 11.397 6.291 11.397 C 7.061 11.411 7.818 11.207 8.476 10.808 C 9.134 10.408 9.665 9.831 10.008 9.142 L 11.773 10 C 11.267 10.98 10.51 11.809 9.581 12.403 C 8.584 12.977 7.454 13.282 6.304 13.286 C 5.153 13.29 4.022 12.995 3.021 12.428 Z M 9.828 5.32 C 9.788 4.772 9.637 4.238 9.385 3.75 C 9.102 3.203 8.673 2.746 8.147 2.427 C 7.506 2.048 6.769 1.86 6.025 1.888 C 5.11 1.865 4.221 2.198 3.547 2.817 C 2.851 3.481 2.384 4.349 2.213 5.295 Z" fill="rgb(255, 255, 255)" height="13.285927567454891px" id="CNwkTyc57" transform="translate(95.763 119.195)" width="12.04133428739587px"/><path d="M 6.443 13.707 C 5.275 13.723 4.124 13.415 3.12 12.818 C 2.143 12.228 1.347 11.381 0.821 10.368 C 0.265 9.287 -0.017 8.086 0.001 6.871 C -0.01 5.684 0.253 4.511 0.769 3.443 C 1.261 2.423 2.02 1.555 2.965 0.931 C 3.949 0.299 5.1 -0.024 6.27 0.002 C 7.427 -0.025 8.57 0.271 9.568 0.856 C 10.496 1.42 11.243 2.236 11.721 3.21 C 12.232 4.272 12.488 5.439 12.467 6.617 C 12.471 6.851 12.443 7.085 12.384 7.311 L 12.34 7.466 L 2.528 7.466 C 2.574 8.198 2.793 8.909 3.166 9.541 C 3.521 10.132 4.031 10.615 4.641 10.938 C 5.219 11.244 5.863 11.404 6.518 11.405 C 7.247 11.418 7.965 11.223 8.588 10.842 C 9.211 10.461 9.712 9.911 10.033 9.256 L 10.132 9.086 L 12.278 10.126 L 12.173 10.325 C 11.646 11.334 10.865 12.188 9.906 12.802 C 8.863 13.43 7.66 13.744 6.443 13.707 Z M 3.346 12.452 C 4.312 12.998 5.405 13.283 6.514 13.279 C 7.624 13.275 8.714 12.983 9.677 12.431 C 10.511 11.896 11.203 11.166 11.69 10.303 L 10.302 9.628 C 9.93 10.303 9.382 10.863 8.715 11.25 C 8.048 11.636 7.288 11.833 6.518 11.821 C 5.796 11.819 5.085 11.643 4.445 11.306 C 3.768 10.949 3.2 10.413 2.804 9.758 C 2.355 8.997 2.107 8.135 2.085 7.252 L 2.085 7.026 L 12.006 7.026 C 12.029 6.887 12.04 6.746 12.04 6.605 C 12.06 5.493 11.82 4.392 11.34 3.39 C 10.896 2.493 10.205 1.741 9.349 1.222 C 8.416 0.679 7.352 0.406 6.273 0.432 C 5.186 0.411 4.116 0.715 3.203 1.306 C 2.323 1.888 1.616 2.697 1.156 3.647 C 0.668 4.657 0.42 5.765 0.431 6.887 C 0.414 8.031 0.679 9.162 1.202 10.179 C 1.692 11.122 2.433 11.912 3.343 12.462 Z M 10.281 5.741 L 2.156 5.741 L 2.209 5.481 C 2.389 4.487 2.879 3.576 3.609 2.879 C 4.323 2.216 5.268 1.857 6.242 1.879 C 7.027 1.851 7.803 2.05 8.478 2.451 C 9.038 2.791 9.492 3.279 9.791 3.861 C 10.055 4.374 10.213 4.936 10.256 5.512 Z M 2.695 5.313 L 9.819 5.313 C 9.758 4.874 9.624 4.448 9.423 4.053 C 9.157 3.542 8.757 3.113 8.265 2.814 C 7.657 2.458 6.961 2.283 6.258 2.309 C 5.392 2.289 4.552 2.606 3.916 3.195 C 3.308 3.769 2.883 4.509 2.692 5.323 Z" fill="rgb(255, 255, 255)" height="13.709625868924565px" id="gNbE7HZU8" transform="translate(95.549 118.991)" width="12.467763028793968px"/><path d="M 0 0 L 5.909 0 C 6.858 -0.007 7.793 0.22 8.632 0.663 C 9.451 1.094 10.141 1.735 10.629 2.521 C 11.12 3.331 11.379 4.26 11.379 5.207 C 11.379 6.153 11.12 7.082 10.629 7.892 C 10.14 8.678 9.451 9.319 8.632 9.75 C 7.793 10.194 6.858 10.421 5.909 10.413 L 2.059 10.413 L 2.059 17.571 L 0 17.571 Z M 5.959 8.415 C 6.567 8.429 7.167 8.268 7.687 7.951 C 8.171 7.655 8.571 7.242 8.852 6.749 C 9.126 6.279 9.27 5.745 9.27 5.2 C 9.27 4.656 9.126 4.122 8.852 3.652 C 8.571 3.159 8.171 2.746 7.687 2.45 C 7.167 2.133 6.568 1.971 5.959 1.982 L 2.059 1.982 L 2.059 8.415 Z" fill="rgb(255, 255, 255)" height="17.571157111566322px" id="bOY3u4erS" transform="translate(115.354 114.548)" width="11.379000000000005px"/><path d="M 2.478 17.982 L 0 17.982 L 0 0 L 6.124 0 C 7.107 -0.007 8.078 0.229 8.948 0.687 C 9.8 1.133 10.517 1.798 11.026 2.614 C 11.538 3.457 11.808 4.425 11.808 5.412 C 11.808 6.399 11.538 7.366 11.026 8.21 C 10.517 9.025 9.799 9.69 8.948 10.137 C 8.078 10.596 7.107 10.832 6.124 10.824 L 2.478 10.824 Z M 0.419 17.555 L 2.041 17.555 L 2.041 10.397 L 6.105 10.397 C 7.018 10.404 7.919 10.186 8.728 9.762 C 9.513 9.348 10.174 8.735 10.645 7.984 C 11.113 7.208 11.36 6.319 11.36 5.413 C 11.36 4.508 11.113 3.619 10.645 2.843 C 10.174 2.092 9.513 1.479 8.728 1.065 C 7.919 0.642 7.018 0.424 6.105 0.43 L 0.419 0.43 Z M 2.041 8.836 L 2.041 1.988 L 6.158 1.988 C 6.807 1.977 7.445 2.15 8 2.487 C 8.515 2.803 8.941 3.244 9.239 3.769 C 9.531 4.269 9.685 4.839 9.685 5.418 C 9.685 5.998 9.531 6.567 9.239 7.067 C 8.941 7.591 8.515 8.03 8 8.343 C 7.448 8.678 6.812 8.849 6.167 8.836 Z M 2.478 8.408 L 6.164 8.408 C 6.732 8.42 7.292 8.27 7.777 7.975 C 8.23 7.697 8.606 7.311 8.871 6.851 C 9.125 6.414 9.258 5.917 9.258 5.412 C 9.258 4.907 9.125 4.41 8.871 3.973 C 8.605 3.513 8.23 3.125 7.777 2.846 C 7.291 2.552 6.732 2.402 6.164 2.412 L 2.478 2.412 Z" fill="rgb(255, 255, 255)" height="17.982151297375253px" id="C07z2qMK2" transform="translate(115.149 114.335)" width="11.807999999999993px"/><path d="M 2.258 12.761 C 1.573 12.432 0.994 11.918 0.588 11.277 C 0.193 10.632 -0.01 9.887 0.003 9.131 C -0.022 8.531 0.102 7.935 0.363 7.395 C 0.624 6.854 1.014 6.387 1.499 6.033 C 2.601 5.257 3.927 4.865 5.274 4.918 C 5.981 4.913 6.685 4.995 7.371 5.163 C 7.89 5.278 8.39 5.468 8.855 5.727 L 8.855 4.965 C 8.871 4.541 8.79 4.119 8.62 3.73 C 8.45 3.341 8.195 2.996 7.873 2.719 C 7.18 2.141 6.297 1.839 5.395 1.874 C 4.721 1.867 4.056 2.023 3.456 2.329 C 2.884 2.614 2.401 3.05 2.059 3.59 L 0.489 2.413 C 0.99 1.651 1.689 1.041 2.511 0.647 C 3.401 0.215 4.379 -0.003 5.367 0.009 C 6.825 -0.074 8.259 0.403 9.375 1.344 C 9.866 1.81 10.251 2.376 10.502 3.004 C 10.754 3.632 10.867 4.308 10.834 4.983 L 10.834 12.903 L 8.848 12.903 L 8.848 11.116 L 8.749 11.116 C 8.35 11.76 7.794 12.293 7.133 12.664 C 6.396 13.092 5.556 13.312 4.704 13.299 C 3.858 13.313 3.02 13.129 2.258 12.761 Z M 6.866 10.921 C 7.463 10.569 7.961 10.071 8.313 9.474 C 8.67 8.874 8.857 8.188 8.851 7.489 C 8.404 7.204 7.917 6.989 7.405 6.851 C 6.814 6.686 6.204 6.603 5.59 6.606 C 4.673 6.539 3.76 6.791 3.007 7.319 C 2.729 7.536 2.505 7.815 2.354 8.134 C 2.202 8.453 2.128 8.803 2.137 9.155 C 2.128 9.475 2.194 9.792 2.33 10.082 C 2.466 10.371 2.668 10.625 2.92 10.822 C 3.486 11.261 4.189 11.487 4.906 11.46 C 5.596 11.463 6.274 11.277 6.866 10.921 Z" fill="rgb(255, 255, 255)" height="13.300008831105908px" id="XGX34Njeg" transform="translate(128.666 119.197)" width="10.839757417827714px"/><path d="M 4.924 13.721 C 4.042 13.735 3.169 13.542 2.375 13.157 C 1.658 12.814 1.051 12.278 0.622 11.608 C 0.206 10.928 -0.008 10.145 0.003 9.347 C -0.021 8.714 0.11 8.085 0.385 7.514 C 0.661 6.943 1.072 6.449 1.583 6.074 C 2.724 5.272 4.095 4.866 5.488 4.915 C 6.212 4.91 6.934 4.994 7.638 5.166 C 8.056 5.265 8.463 5.402 8.855 5.578 L 8.855 5.176 C 8.872 4.782 8.799 4.391 8.642 4.03 C 8.484 3.669 8.247 3.349 7.947 3.094 C 7.293 2.551 6.462 2.269 5.612 2.301 C 4.974 2.295 4.344 2.443 3.775 2.732 C 3.238 3.001 2.783 3.411 2.459 3.918 L 2.335 4.113 L 0.421 2.676 L 0.53 2.509 C 1.052 1.716 1.78 1.081 2.636 0.669 C 3.555 0.223 4.566 -0.003 5.587 0.009 C 7.099 -0.072 8.584 0.426 9.741 1.403 C 10.253 1.889 10.655 2.48 10.919 3.135 C 11.184 3.79 11.303 4.495 11.271 5.2 L 11.271 13.334 L 8.858 13.334 L 8.858 11.875 C 8.47 12.353 7.998 12.755 7.464 13.061 C 6.693 13.507 5.815 13.735 4.924 13.721 Z M 5.488 5.337 C 4.189 5.291 2.911 5.672 1.849 6.421 C 1.389 6.753 1.018 7.195 0.772 7.707 C 0.526 8.218 0.412 8.783 0.44 9.351 C 0.428 10.067 0.62 10.771 0.994 11.382 C 1.378 11.989 1.926 12.475 2.574 12.785 C 3.308 13.139 4.115 13.316 4.931 13.303 C 5.745 13.309 6.545 13.095 7.247 12.683 C 7.879 12.332 8.411 11.827 8.796 11.215 L 8.858 11.11 L 9.282 11.11 L 9.282 12.897 L 10.831 12.897 L 10.831 5.207 C 10.862 4.56 10.754 3.915 10.514 3.315 C 10.274 2.714 9.908 2.172 9.44 1.725 C 8.362 0.823 6.981 0.366 5.578 0.446 C 4.623 0.436 3.678 0.648 2.818 1.066 C 2.093 1.414 1.467 1.938 0.994 2.589 L 2.233 3.519 C 2.586 3.035 3.049 2.642 3.583 2.373 C 4.214 2.053 4.912 1.889 5.618 1.896 C 6.571 1.863 7.503 2.183 8.235 2.794 C 8.58 3.09 8.854 3.461 9.037 3.877 C 9.22 4.294 9.307 4.746 9.292 5.2 L 9.292 6.346 L 8.963 6.142 C 8.517 5.895 8.037 5.713 7.539 5.603 C 6.868 5.437 6.179 5.355 5.488 5.358 Z M 5.12 11.884 C 4.354 11.911 3.603 11.668 2.998 11.196 C 2.724 10.982 2.504 10.706 2.355 10.392 C 2.205 10.077 2.131 9.733 2.137 9.385 C 2.129 9 2.21 8.619 2.374 8.271 C 2.539 7.923 2.782 7.618 3.085 7.381 C 3.878 6.823 4.84 6.555 5.807 6.622 C 6.44 6.619 7.071 6.703 7.681 6.873 C 8.215 7.017 8.723 7.241 9.189 7.539 L 9.285 7.601 L 9.285 7.715 C 9.29 8.453 9.093 9.178 8.715 9.812 C 8.344 10.44 7.82 10.964 7.192 11.336 C 6.565 11.707 5.848 11.9 5.12 11.893 Z M 5.804 7.031 C 4.936 6.966 4.072 7.2 3.354 7.694 C 3.1 7.89 2.895 8.144 2.758 8.435 C 2.62 8.726 2.553 9.045 2.561 9.366 C 2.552 9.654 2.612 9.94 2.734 10.2 C 2.857 10.461 3.04 10.689 3.267 10.865 C 3.799 11.272 4.457 11.481 5.126 11.454 C 5.78 11.457 6.423 11.281 6.984 10.946 C 7.549 10.61 8.021 10.139 8.356 9.574 C 8.673 9.039 8.848 8.432 8.864 7.811 C 8.462 7.57 8.028 7.386 7.576 7.263 C 6.998 7.107 6.402 7.032 5.804 7.04 Z" fill="rgb(255, 255, 255)" height="13.721243968502256px" id="NWYef7CRM" transform="translate(128.452 118.977)" width="11.275884279093374px"/><path d="M 0 3.726 L 1.988 3.726 L 1.988 5.715 L 2.087 5.715 C 2.375 4.988 2.903 4.382 3.583 3.999 C 4.283 3.589 5.08 3.375 5.891 3.38 C 6.194 3.375 6.497 3.4 6.795 3.454 L 6.795 5.588 C 6.424 5.513 6.046 5.48 5.668 5.489 C 5.187 5.472 4.708 5.557 4.262 5.738 C 3.816 5.92 3.414 6.194 3.082 6.542 C 2.402 7.291 2.045 8.278 2.087 9.289 L 2.087 16.227 L 0.003 16.227 Z M 12.698 16.177 C 12.292 16.03 11.92 15.801 11.605 15.505 C 11.283 15.196 11.032 14.821 10.868 14.406 C 10.692 13.917 10.609 13.4 10.623 12.882 L 10.623 5.417 L 8.455 5.417 L 8.455 3.528 L 10.623 3.528 L 10.623 0 L 12.705 0 L 12.705 3.528 L 15.746 3.528 L 15.746 5.417 L 12.705 5.417 L 12.705 12.383 C 12.663 12.928 12.801 13.472 13.098 13.932 C 13.266 14.12 13.474 14.267 13.708 14.363 C 13.941 14.458 14.194 14.499 14.445 14.483 C 14.933 14.478 15.409 14.333 15.817 14.065 L 15.817 16.1 C 15.579 16.212 15.327 16.295 15.068 16.344 C 14.749 16.399 14.425 16.424 14.101 16.419 C 13.62 16.426 13.141 16.344 12.689 16.177 Z" fill="rgb(255, 255, 255)" height="16.419624999999996px" id="sAeGLmsAn" transform="translate(142.055 116.068)" width="15.816999923706078px"/><path d="M 14.316 16.855 C 13.808 16.858 13.304 16.769 12.829 16.592 C 12.397 16.431 12.001 16.186 11.664 15.87 C 11.322 15.539 11.053 15.139 10.878 14.696 C 10.692 14.183 10.604 13.64 10.618 13.095 L 10.618 5.848 L 8.45 5.848 L 8.45 3.531 L 10.618 3.531 L 10.618 0 L 13.126 0 L 13.126 3.528 L 16.168 3.528 L 16.168 5.845 L 13.126 5.845 L 13.126 12.596 C 13.086 13.095 13.208 13.594 13.473 14.018 C 13.621 14.181 13.804 14.308 14.009 14.39 C 14.213 14.471 14.434 14.505 14.653 14.489 C 15.1 14.484 15.537 14.35 15.911 14.105 L 16.239 13.897 L 16.239 16.459 L 16.115 16.517 C 15.86 16.636 15.592 16.724 15.316 16.778 C 14.986 16.835 14.651 16.861 14.316 16.855 Z M 8.868 5.417 L 11.036 5.417 L 11.036 13.095 C 11.023 13.586 11.101 14.075 11.265 14.538 C 11.417 14.925 11.65 15.275 11.949 15.564 C 12.244 15.836 12.591 16.046 12.968 16.183 C 13.394 16.343 13.845 16.423 14.3 16.418 C 14.611 16.424 14.922 16.4 15.229 16.347 C 15.427 16.309 15.62 16.251 15.805 16.174 L 15.805 14.644 C 15.444 14.817 15.048 14.908 14.647 14.91 C 14.365 14.929 14.081 14.883 13.82 14.775 C 13.558 14.668 13.324 14.502 13.136 14.291 C 12.802 13.793 12.646 13.197 12.693 12.599 L 12.693 5.417 L 15.734 5.417 L 15.734 3.955 L 12.693 3.955 L 12.693 0.427 L 11.039 0.427 L 11.039 3.955 L 8.871 3.955 Z M 2.515 16.657 L 0 16.657 L 0 3.726 L 2.416 3.726 L 2.416 5.231 C 2.737 4.733 3.174 4.319 3.689 4.026 C 4.421 3.6 5.254 3.377 6.102 3.382 C 6.419 3.378 6.737 3.403 7.05 3.457 L 7.22 3.494 L 7.22 6.074 L 6.957 6.012 C 6.602 5.941 6.24 5.91 5.879 5.919 C 5.427 5.899 4.976 5.977 4.556 6.147 C 4.137 6.317 3.759 6.575 3.448 6.904 C 2.811 7.616 2.478 8.548 2.518 9.502 Z M 0.431 16.229 L 2.088 16.229 L 2.088 9.505 C 2.045 8.44 2.422 7.4 3.138 6.61 C 3.49 6.24 3.917 5.95 4.39 5.757 C 4.863 5.564 5.372 5.474 5.882 5.491 C 6.187 5.488 6.493 5.506 6.796 5.544 L 6.796 3.85 C 6.567 3.821 6.336 3.808 6.105 3.81 C 5.333 3.806 4.574 4.008 3.906 4.395 C 3.266 4.753 2.77 5.322 2.503 6.006 L 2.447 6.142 L 1.989 6.142 L 1.989 4.153 L 0.44 4.153 Z" fill="rgb(255, 255, 255)" height="16.855844575790428px" id="LMrGcrCkw" transform="translate(141.841 115.855)" width="16.238999809265152px"/><path d="M 0 0.401 L 1.989 0.401 L 1.989 2.244 L 2.085 2.244 C 2.476 1.575 3.044 1.028 3.726 0.661 C 4.455 0.234 5.285 0.01 6.13 0.01 C 6.764 -0.032 7.401 0.063 7.995 0.29 C 8.59 0.517 9.128 0.869 9.574 1.324 C 10.409 2.319 10.834 3.594 10.763 4.892 L 10.763 12.907 L 8.679 12.907 L 8.679 5.208 C 8.72 4.752 8.668 4.293 8.525 3.859 C 8.381 3.424 8.15 3.024 7.845 2.683 C 7.217 2.134 6.399 1.853 5.566 1.9 C 4.92 1.892 4.289 2.089 3.763 2.463 C 3.228 2.842 2.801 3.353 2.524 3.947 C 2.232 4.547 2.08 5.206 2.081 5.873 L 2.081 12.907 L 0 12.907 Z" fill="rgb(255, 255, 255)" height="12.906675018318424px" id="IafVKucAy" transform="translate(160.164 119.196)" width="10.770654308057317px"/><path d="M 11.193 13.337 L 8.678 13.337 L 8.678 5.423 C 8.718 4.997 8.671 4.567 8.539 4.16 C 8.408 3.753 8.195 3.376 7.913 3.054 C 7.322 2.545 6.557 2.285 5.779 2.329 C 5.178 2.322 4.591 2.505 4.1 2.853 C 3.597 3.211 3.195 3.693 2.933 4.253 C 2.655 4.824 2.511 5.451 2.512 6.086 L 2.512 13.337 L 0 13.337 L 0 0.4 L 2.416 0.4 L 2.416 1.889 C 2.806 1.4 3.288 0.992 3.834 0.688 C 4.596 0.244 5.461 0.01 6.343 0.009 C 7.007 -0.032 7.673 0.07 8.294 0.308 C 8.916 0.547 9.478 0.916 9.945 1.391 C 10.814 2.428 11.257 3.756 11.184 5.107 Z M 9.109 12.909 L 10.766 12.909 L 10.766 5.107 C 10.834 3.863 10.429 2.639 9.632 1.682 C 9.205 1.252 8.691 0.918 8.124 0.704 C 7.557 0.491 6.951 0.401 6.346 0.443 C 5.54 0.443 4.748 0.657 4.051 1.062 C 3.408 1.412 2.873 1.93 2.502 2.561 L 2.444 2.673 L 2.004 2.673 L 2.004 0.833 L 0.455 0.833 L 0.455 12.912 L 2.109 12.912 L 2.109 6.098 C 2.108 5.399 2.267 4.708 2.574 4.079 C 2.868 3.454 3.318 2.916 3.881 2.515 C 4.443 2.117 5.118 1.907 5.807 1.914 C 6.695 1.867 7.567 2.17 8.235 2.757 C 8.561 3.118 8.809 3.542 8.964 4.003 C 9.119 4.463 9.178 4.951 9.137 5.436 Z" fill="rgb(255, 255, 255)" height="13.336837165859393px" id="zDbBvfTWK" transform="translate(159.96 118.98)" width="11.192999999999984px"/><path d="M 3.015 12.444 C 2.071 11.875 1.304 11.056 0.797 10.077 C 0.255 9.025 -0.019 7.854 0.001 6.67 C -0.01 5.515 0.246 4.374 0.751 3.335 C 1.224 2.349 1.957 1.511 2.869 0.91 C 3.818 0.295 4.929 -0.021 6.06 0.002 C 7.178 -0.026 8.281 0.258 9.247 0.823 C 10.14 1.365 10.859 2.152 11.319 3.09 C 11.815 4.121 12.063 5.254 12.043 6.398 C 12.046 6.612 12.021 6.825 11.969 7.033 L 2.089 7.033 C 2.107 7.88 2.344 8.708 2.776 9.436 C 3.149 10.059 3.684 10.567 4.325 10.907 C 4.933 11.229 5.61 11.397 6.298 11.397 C 7.067 11.411 7.825 11.207 8.483 10.808 C 9.141 10.409 9.672 9.831 10.015 9.142 L 11.783 10 C 11.274 10.98 10.517 11.808 9.587 12.403 C 8.59 12.978 7.461 13.282 6.311 13.286 C 5.16 13.291 4.028 12.995 3.027 12.428 Z M 9.829 5.32 C 9.787 4.772 9.637 4.238 9.386 3.75 C 9.103 3.203 8.674 2.746 8.147 2.427 C 7.506 2.047 6.77 1.86 6.025 1.888 C 5.11 1.864 4.222 2.198 3.548 2.817 C 2.851 3.481 2.382 4.349 2.21 5.295 Z" fill="rgb(255, 255, 255)" height="13.28594973514956px" id="bwbrLOx3Z" transform="translate(173.267 119.195)" width="12.044141877794866px"/><path d="M 6.443 13.707 C 5.275 13.722 4.126 13.415 3.123 12.818 C 2.145 12.229 1.35 11.381 0.825 10.368 C 0.267 9.288 -0.016 8.087 0.001 6.871 C -0.01 5.684 0.254 4.511 0.772 3.443 C 1.262 2.422 2.02 1.554 2.965 0.931 C 3.95 0.299 5.102 -0.025 6.273 0.002 C 7.43 -0.025 8.572 0.271 9.571 0.856 C 10.499 1.419 11.246 2.236 11.724 3.21 C 12.235 4.272 12.49 5.439 12.47 6.617 C 12.473 6.851 12.446 7.084 12.389 7.311 L 12.346 7.469 L 2.531 7.469 C 2.574 8.202 2.793 8.914 3.169 9.544 C 3.524 10.135 4.034 10.618 4.643 10.941 C 5.221 11.247 5.864 11.407 6.517 11.409 C 7.247 11.422 7.965 11.226 8.588 10.846 C 9.21 10.465 9.712 9.915 10.033 9.259 L 10.135 9.089 L 12.281 10.129 L 12.176 10.328 C 11.648 11.336 10.866 12.19 9.909 12.805 C 8.864 13.432 7.661 13.745 6.443 13.707 Z M 3.346 12.452 C 4.312 12.998 5.404 13.283 6.514 13.279 C 7.624 13.275 8.714 12.983 9.676 12.431 C 10.51 11.895 11.2 11.165 11.69 10.303 L 10.302 9.628 C 9.93 10.302 9.381 10.863 8.714 11.249 C 8.047 11.636 7.288 11.833 6.517 11.821 C 5.795 11.82 5.084 11.643 4.445 11.306 C 3.768 10.948 3.201 10.413 2.804 9.758 C 2.354 8.998 2.107 8.135 2.085 7.252 L 2.085 7.026 L 12.021 7.026 C 12.044 6.887 12.056 6.746 12.055 6.605 C 12.075 5.493 11.835 4.393 11.355 3.39 C 10.91 2.493 10.219 1.742 9.364 1.222 C 8.431 0.679 7.367 0.405 6.288 0.432 C 5.201 0.411 4.132 0.715 3.219 1.306 C 2.337 1.887 1.63 2.696 1.171 3.647 C 0.682 4.657 0.433 5.767 0.444 6.89 C 0.428 8.034 0.693 9.165 1.218 10.182 C 1.707 11.126 2.448 11.916 3.358 12.465 Z M 10.28 5.741 L 2.159 5.741 L 2.212 5.481 C 2.391 4.487 2.881 3.576 3.612 2.879 C 4.326 2.216 5.27 1.857 6.245 1.879 C 7.03 1.851 7.806 2.05 8.481 2.452 C 9.04 2.791 9.494 3.279 9.794 3.861 C 10.059 4.374 10.218 4.935 10.262 5.512 Z M 2.695 5.313 L 9.819 5.313 C 9.758 4.874 9.624 4.448 9.422 4.053 C 9.156 3.541 8.754 3.113 8.261 2.814 C 7.654 2.458 6.957 2.283 6.254 2.309 C 5.388 2.289 4.548 2.607 3.912 3.195 C 3.307 3.77 2.882 4.509 2.692 5.323 Z" fill="rgb(255, 255, 255)" height="13.709786579126082px" id="X7uWsGUOr" transform="translate(173.051 118.991)" width="12.470814894059144px"/><path d="M 0 0.391 L 1.988 0.391 L 1.988 2.401 L 2.087 2.401 C 2.357 1.687 2.857 1.083 3.509 0.685 C 4.161 0.244 4.929 0.006 5.717 0.001 C 6.222 -0.012 6.724 0.08 7.191 0.27 L 7.191 2.503 C 6.641 2.236 6.035 2.101 5.423 2.11 C 4.827 2.108 4.246 2.288 3.756 2.627 C 3.24 2.98 2.822 3.459 2.542 4.018 C 2.239 4.597 2.083 5.241 2.087 5.894 L 2.087 12.9 L 0.003 12.9 Z" fill="rgb(255, 255, 255)" height="12.900208808638283px" id="odPDkTRen" transform="translate(187.708 119.206)" width="7.1910000000000025px"/><path d="M 2.515 13.331 L 0 13.331 L 0 0.394 L 2.416 0.394 L 2.416 1.893 C 2.723 1.422 3.129 1.022 3.605 0.722 C 4.292 0.259 5.1 0.008 5.928 0.001 C 6.458 -0.01 6.985 0.088 7.476 0.289 L 7.607 0.345 L 7.607 3.064 L 7.297 2.909 C 6.776 2.657 6.203 2.529 5.624 2.537 C 5.071 2.535 4.53 2.702 4.076 3.017 C 3.59 3.351 3.197 3.801 2.933 4.328 C 2.646 4.877 2.498 5.489 2.502 6.108 Z M 0.43 12.904 L 2.087 12.904 L 2.087 6.111 C 2.083 5.424 2.247 4.746 2.564 4.135 C 2.862 3.547 3.303 3.042 3.847 2.667 C 4.372 2.305 4.995 2.111 5.634 2.113 C 6.163 2.109 6.688 2.203 7.182 2.392 L 7.182 0.633 C 6.778 0.493 6.352 0.426 5.925 0.434 C 5.18 0.441 4.454 0.668 3.837 1.085 C 3.225 1.458 2.755 2.023 2.499 2.692 L 2.45 2.835 L 1.988 2.835 L 1.988 0.828 L 0.44 0.828 Z" fill="rgb(255, 255, 255)" height="13.330833341249757px" id="kkCdjWBhI" transform="translate(187.494 118.986)" width="7.606999999999999px"/></svg>