<svg width="1161" height="486" viewBox="0 0 1161 486" fill="none" xmlns="http://www.w3.org/2000/svg">
<path d="M467.743 64.1479H500.914L557.321 166.204L613.7 64.1479H646.166V231.966H619.085V103.296L569.631 192.304H544.311L494.792 103.296V231.966H467.743V64.1479Z" fill="white"/>
<path d="M733.406 234.82C721.846 235.072 710.429 232.205 700.363 226.513C690.96 221.048 683.265 213.066 678.152 203.461C672.701 193.045 669.967 181.422 670.202 169.668C669.959 157.822 672.623 146.097 677.958 135.52C682.878 125.923 690.371 117.888 699.593 112.307C709.198 106.59 720.211 103.683 731.385 103.905C742.064 103.481 752.62 106.319 761.645 112.048C770.669 117.777 777.734 126.121 781.897 135.969C786.763 147.233 789.134 159.42 788.854 171.686V179.095H697.028C698.218 188.341 702.607 196.884 709.433 203.239C716.341 209.227 725.263 212.374 734.398 212.052C741.513 212.217 748.59 210.99 755.231 208.432C761.336 205.862 766.906 202.164 771.641 197.53L786.001 215.162C771.674 228.284 752.822 235.331 733.406 234.82ZM753.18 135.425C750.253 132.493 746.741 130.207 742.879 128.712C739.018 127.217 734.884 126.541 730.747 126.735C726.605 126.628 722.484 127.357 718.63 128.876C714.773 130.396 711.265 132.678 708.309 135.586C702.01 142.081 697.992 150.454 696.868 159.437H762.892C762.654 150.512 759.216 141.966 753.213 135.359L753.18 135.425Z" fill="white"/>
<path d="M821.704 129.074H796.771V106.92H821.704V70.2394H847.793V106.92H885.612V129.107H847.793V185.248C847.793 194.569 849.387 201.237 852.569 205.257C855.752 209.277 861.223 211.262 868.98 211.221C871.903 211.249 874.822 211.109 877.728 210.805C880.133 210.545 882.759 210.162 885.612 209.68V231.579C882.344 232.535 879.013 233.264 875.645 233.762C871.771 234.322 867.86 234.598 863.949 234.594C835.764 234.594 821.683 219.182 821.704 188.358V129.074Z" fill="white"/>
<path d="M1021.67 231.962H996.027V214.487C991.605 220.916 985.627 226.122 978.653 229.623C971.209 233.272 963.004 235.096 954.713 234.944C944.334 235.138 934.136 232.201 925.453 226.509C916.787 220.718 909.854 212.683 905.387 203.263C900.36 192.711 897.857 181.13 898.079 169.437C897.836 157.711 900.388 146.097 905.514 135.549C910.109 126.109 917.202 118.114 926.029 112.431C935.033 106.747 945.507 103.827 956.154 104.029C964.095 103.905 971.959 105.606 979.135 109C985.821 112.196 991.622 116.986 996.027 122.946V106.916H1021.67V231.962ZM995.545 150.746C992.972 143.905 988.349 138.028 982.309 133.914C976.138 129.766 968.842 127.616 961.411 127.756C956.409 127.538 951.419 128.432 946.804 130.372C942.189 132.311 938.059 135.252 934.712 138.98C928.113 146.484 924.798 156.624 924.778 169.408C924.757 182.188 927.96 192.365 934.395 199.931C937.582 203.663 941.583 206.62 946.087 208.576C950.591 210.533 955.482 211.435 960.386 211.216C968.043 211.286 975.549 209.054 981.922 204.804C988.135 200.8 992.914 194.931 995.578 188.037L995.545 150.746Z" fill="white"/>
<path d="M336.945 58.4395C315.183 58.4395 298.167 74.8234 282.749 95.6638C261.596 68.699 243.905 58.4395 222.719 58.4395C179.547 58.4395 146.471 114.647 146.471 174.252C146.471 211.476 164.45 234.977 194.546 234.977C216.275 234.977 231.887 224.717 259.64 176.208L279.159 141.673C281.946 146.195 284.865 151.039 287.973 156.233L300.987 178.131C326.336 220.582 340.469 234.977 366.048 234.977C395.436 234.977 411.78 211.155 411.78 173.16C411.846 110.767 378.033 58.4395 336.945 58.4395ZM238.52 162.967C216.086 198.234 208.231 206.155 195.731 206.155C183.232 206.155 175.155 194.837 175.155 174.635C175.155 131.447 196.695 87.2658 222.364 87.2658C236.243 87.2658 248.005 95.3137 265.667 120.771C248.775 146.71 238.52 162.967 238.52 162.967ZM323.454 158.506L307.908 132.571C303.634 125.75 299.587 119.445 295.763 113.654C309.769 92.0105 321.403 81.2032 335.117 81.2032C363.677 81.2032 386.399 123.337 386.399 175.022C386.399 194.738 379.989 206.183 366.559 206.183C353.899 206.315 347.777 197.687 323.454 158.506Z" fill="#007FF8"/>
<path d="M145.627 399.426V318.742H173.825C179.44 318.742 184.076 319.714 187.724 321.658C191.372 323.577 194.093 326.164 195.876 329.417C197.662 332.651 198.552 336.234 198.552 340.175C198.552 343.639 197.938 346.502 196.703 348.763C195.497 351.02 193.895 352.807 191.898 354.121C189.931 355.435 187.79 356.407 185.48 357.037V357.824C187.946 357.98 190.429 358.849 192.924 360.423C195.414 362 197.502 364.257 199.186 367.198C200.865 370.143 201.705 373.738 201.705 377.993C201.705 382.037 200.787 385.674 198.947 388.907C197.111 392.136 194.208 394.698 190.243 396.588C186.279 398.479 181.12 399.426 174.768 399.426H145.627ZM155.393 390.756H174.768C181.149 390.756 185.678 389.525 188.354 387.054C191.059 384.558 192.409 381.539 192.409 377.993C192.409 375.262 191.713 372.741 190.322 370.431C188.93 368.091 186.95 366.226 184.377 364.834C181.804 363.417 178.757 362.708 175.241 362.708H155.393V390.756ZM155.393 354.199H173.508C176.447 354.199 179.099 353.623 181.462 352.465C183.854 351.308 185.744 349.681 187.135 347.581C188.551 345.48 189.259 343.009 189.259 340.175C189.259 336.629 188.024 333.623 185.558 331.151C183.092 328.655 179.181 327.412 173.825 327.412H155.393V354.199ZM254.613 374.685V338.915H263.905V399.426H254.613V389.183H253.979C252.563 392.256 250.36 394.867 247.367 397.021C244.374 399.15 240.591 400.213 236.025 400.213C232.245 400.213 228.882 399.385 225.942 397.729C223.003 396.049 220.693 393.528 219.013 390.167C217.333 386.778 216.489 382.511 216.489 377.363V338.915H225.786V376.732C225.786 381.143 227.021 384.665 229.487 387.293C231.982 389.916 235.156 391.23 239.018 391.23C241.327 391.23 243.678 390.641 246.066 389.459C248.483 388.277 250.504 386.465 252.131 384.022C253.786 381.58 254.613 378.466 254.613 374.685ZM323.771 352.465L315.426 354.829C314.899 353.437 314.125 352.086 313.099 350.773C312.103 349.43 310.736 348.33 309.003 347.461C307.274 346.596 305.055 346.164 302.35 346.164C298.649 346.164 295.561 347.016 293.095 348.721C290.653 350.402 289.435 352.544 289.435 355.142C289.435 357.457 290.275 359.282 291.954 360.62C293.634 361.959 296.257 363.075 299.83 363.969L308.81 366.176C314.215 367.486 318.246 369.496 320.897 372.202C323.548 374.883 324.874 378.335 324.874 382.564C324.874 386.028 323.878 389.129 321.881 391.86C319.913 394.591 317.155 396.745 313.614 398.322C310.069 399.896 305.948 400.686 301.247 400.686C295.079 400.686 289.97 399.348 285.927 396.667C281.884 393.989 279.323 390.077 278.249 384.928L287.072 382.721C287.912 385.979 289.497 388.421 291.835 390.048C294.198 391.675 297.282 392.49 301.09 392.49C305.421 392.49 308.859 391.572 311.407 389.735C313.981 387.869 315.265 385.637 315.265 383.038C315.265 380.933 314.532 379.175 313.062 377.758C311.593 376.312 309.332 375.237 306.286 374.525L296.207 372.165C290.666 370.851 286.598 368.816 284 366.057C281.427 363.273 280.139 359.792 280.139 355.616C280.139 352.202 281.098 349.183 283.012 346.555C284.956 343.931 287.595 341.868 290.929 340.369C294.289 338.874 298.097 338.124 302.35 338.124C308.336 338.124 313.034 339.438 316.447 342.066C319.888 344.689 322.33 348.157 323.771 352.465ZM338.864 399.426V338.915H348.16V399.426H338.864ZM343.59 328.828C341.779 328.828 340.218 328.211 338.905 326.975C337.616 325.744 336.974 324.257 336.974 322.523C336.974 320.793 337.616 319.306 338.905 318.075C340.218 316.839 341.779 316.221 343.59 316.221C345.402 316.221 346.95 316.839 348.238 318.075C349.552 319.306 350.206 320.793 350.206 322.523C350.206 324.257 349.552 325.744 348.238 326.975C346.95 328.211 345.402 328.828 343.59 328.828ZM374.472 363.021V399.426H365.18V338.915H374.159V348.367H374.945C376.362 345.295 378.515 342.828 381.405 340.962C384.291 339.071 388.021 338.124 392.587 338.124C396.683 338.124 400.269 338.964 403.34 340.645C406.412 342.301 408.8 344.821 410.504 348.211C412.213 351.572 413.065 355.826 413.065 360.974V399.426H403.773V361.605C403.773 356.852 402.538 353.149 400.072 350.497C397.601 347.815 394.217 346.477 389.911 346.477C386.942 346.477 384.291 347.119 381.957 348.408C379.647 349.693 377.819 351.572 376.481 354.043C375.143 356.51 374.472 359.504 374.472 363.021ZM455.408 400.686C449.583 400.686 444.556 399.397 440.328 396.823C436.128 394.224 432.884 390.6 430.599 385.95C428.343 381.275 427.215 375.839 427.215 369.64C427.215 363.442 428.343 357.98 430.599 353.252C432.884 348.499 436.063 344.796 440.13 342.144C444.227 339.463 449.002 338.124 454.466 338.124C457.615 338.124 460.728 338.651 463.799 339.702C466.87 340.752 469.666 342.457 472.185 344.821C474.705 347.161 476.714 350.258 478.213 354.121C479.707 357.98 480.456 362.733 480.456 368.38V372.321H433.831V364.286H471.004C471.004 360.871 470.32 357.824 468.958 355.142C467.62 352.465 465.701 350.352 463.206 348.8C460.74 347.251 457.825 346.477 454.466 346.477C450.764 346.477 447.561 347.395 444.857 349.236C442.176 351.049 440.118 353.413 438.673 356.324C437.228 359.24 436.507 362.367 436.507 365.703V371.061C436.507 375.629 437.294 379.504 438.87 382.68C440.472 385.835 442.691 388.236 445.523 389.891C448.36 391.518 451.654 392.334 455.408 392.334C457.85 392.334 460.057 391.992 462.025 391.308C464.021 390.6 465.742 389.55 467.183 388.157C468.628 386.741 469.744 384.978 470.53 382.877L479.51 385.398C478.567 388.446 476.978 391.127 474.746 393.438C472.515 395.723 469.756 397.507 466.475 398.796C463.194 400.056 459.505 400.686 455.408 400.686ZM537.44 352.465L529.091 354.829C528.564 353.437 527.79 352.086 526.765 350.773C525.768 349.43 524.402 348.33 522.672 347.461C520.939 346.596 518.72 346.164 516.015 346.164C512.314 346.164 509.23 347.016 506.76 348.721C504.319 350.402 503.1 352.544 503.1 355.142C503.1 357.457 503.94 359.282 505.62 360.62C507.299 361.959 509.926 363.075 513.496 363.969L522.475 366.176C527.88 367.486 531.911 369.496 534.562 372.202C537.214 374.883 538.539 378.335 538.539 382.564C538.539 386.028 537.543 389.129 535.546 391.86C533.578 394.591 530.824 396.745 527.279 398.322C523.735 399.896 519.613 400.686 514.912 400.686C508.744 400.686 503.635 399.348 499.592 396.667C495.549 393.989 492.993 390.077 491.914 384.928L500.737 382.721C501.577 385.979 503.166 388.421 505.5 390.048C507.863 391.675 510.947 392.49 514.755 392.49C519.086 392.49 522.528 391.572 525.073 389.735C527.646 387.869 528.93 385.637 528.93 383.038C528.93 380.933 528.197 379.175 526.728 377.758C525.258 376.312 522.998 375.237 519.955 374.525L509.873 372.165C504.331 370.851 500.263 368.816 497.666 366.057C495.092 363.273 493.804 359.792 493.804 355.616C493.804 352.202 494.763 349.183 496.682 346.555C498.625 343.931 501.26 341.868 504.595 340.369C507.954 338.874 511.762 338.124 516.015 338.124C522.001 338.124 526.699 339.438 530.112 342.066C533.554 344.689 535.995 348.157 537.44 352.465ZM595.375 352.465L587.026 354.829C586.503 353.437 585.729 352.086 584.704 350.773C583.707 349.43 582.34 348.33 580.607 347.461C578.874 346.596 576.659 346.164 573.954 346.164C570.253 346.164 567.165 347.016 564.699 348.721C562.258 350.402 561.035 352.544 561.035 355.142C561.035 357.457 561.879 359.282 563.559 360.62C565.238 361.959 567.861 363.075 571.434 363.969L580.414 366.176C585.819 367.486 589.85 369.496 592.501 372.202C595.153 374.883 596.478 378.335 596.478 382.564C596.478 386.028 595.482 389.129 593.485 391.86C591.517 394.591 588.759 396.745 585.214 398.322C581.673 399.896 577.548 400.686 572.851 400.686C566.679 400.686 561.574 399.348 557.531 396.667C553.488 393.989 550.927 390.077 549.853 384.928L558.676 382.721C559.516 385.979 561.101 388.421 563.439 390.048C565.802 391.675 568.886 392.49 572.694 392.49C577.025 392.49 580.463 391.572 583.011 389.735C585.585 387.869 586.869 385.637 586.869 383.038C586.869 380.933 586.136 379.175 584.666 377.758C583.193 376.312 580.936 375.237 577.89 374.525L567.811 372.165C562.27 370.851 558.202 368.816 555.6 366.057C553.031 363.273 551.743 359.792 551.743 355.616C551.743 352.202 552.702 349.183 554.616 346.555C556.56 343.931 559.199 341.868 562.533 340.369C565.893 338.874 569.701 338.124 573.954 338.124C579.94 338.124 584.638 339.438 588.051 342.066C591.488 344.689 593.934 348.157 595.375 352.465ZM642.918 399.426V318.742H670.169C676.497 318.742 681.668 319.887 685.686 322.169C689.729 324.43 692.718 327.49 694.661 331.349C696.604 335.208 697.576 339.516 697.576 344.269C697.576 349.026 696.604 353.347 694.661 357.231C692.746 361.119 689.778 364.22 685.764 366.53C681.746 368.816 676.6 369.957 670.325 369.957H650.794V361.292H670.012C674.343 361.292 677.822 360.542 680.445 359.043C683.072 357.548 684.974 355.525 686.155 352.976C687.366 350.402 687.967 347.502 687.967 344.269C687.967 341.04 687.366 338.153 686.155 335.604C684.974 333.058 683.059 331.061 680.408 329.615C677.756 328.145 674.236 327.412 669.852 327.412H652.684V399.426H642.918ZM729.849 400.843C726.016 400.843 722.537 400.122 719.412 398.677C716.288 397.206 713.809 395.089 711.969 392.334C710.133 389.55 709.215 386.189 709.215 382.247C709.215 378.783 709.894 375.97 711.261 373.816C712.628 371.638 714.451 369.932 716.736 368.697C719.017 367.461 721.541 366.543 724.295 365.937C727.078 365.307 729.874 364.809 732.686 364.442C736.358 363.969 739.339 363.614 741.624 363.38C743.933 363.116 745.613 362.684 746.663 362.078C747.742 361.473 748.277 360.423 748.277 358.927V358.61C748.277 354.722 747.215 351.703 745.09 349.549C742.987 347.395 739.8 346.32 735.518 346.32C731.084 346.32 727.605 347.292 725.082 349.236C722.562 351.18 720.792 353.252 719.767 355.46L710.948 352.309C712.521 348.631 714.62 345.768 717.247 343.721C719.898 341.646 722.784 340.2 725.909 339.385C729.063 338.544 732.159 338.124 735.205 338.124C737.149 338.124 739.38 338.363 741.9 338.833C744.444 339.282 746.902 340.212 749.261 341.633C751.653 343.05 753.633 345.192 755.21 348.054C756.783 350.917 757.573 354.751 757.573 359.558V399.426H748.277V391.23H747.808C747.178 392.544 746.124 393.948 744.654 395.447C743.184 396.943 741.229 398.215 738.787 399.265C736.346 400.316 733.365 400.843 729.849 400.843ZM731.265 392.49C734.942 392.49 738.038 391.77 740.562 390.324C743.106 388.878 745.024 387.017 746.309 384.731C747.622 382.445 748.277 380.04 748.277 377.519V369.01C747.886 369.484 747.017 369.916 745.679 370.311C744.366 370.678 742.842 371.007 741.109 371.296C739.405 371.559 737.737 371.794 736.111 372.004C734.51 372.19 733.209 372.346 732.212 372.478C729.796 372.795 727.539 373.306 725.44 374.014C723.365 374.698 721.685 375.736 720.396 377.128C719.137 378.491 718.507 380.357 718.507 382.721C718.507 385.95 719.701 388.392 722.093 390.048C724.505 391.675 727.564 392.49 731.265 392.49ZM774.535 399.426V338.915H783.514V348.054H784.144C785.248 345.06 787.24 342.63 790.131 340.764C793.017 338.899 796.273 337.968 799.896 337.968C800.58 337.968 801.432 337.98 802.457 338.009C803.478 338.034 804.252 338.075 804.779 338.124V347.581C804.462 347.502 803.741 347.383 802.613 347.226C801.51 347.041 800.341 346.95 799.11 346.95C796.166 346.95 793.544 347.568 791.234 348.8C788.949 350.011 787.137 351.691 785.799 353.845C784.486 355.97 783.827 358.4 783.827 361.131V399.426H774.535ZM845.891 338.915V346.794H814.544V338.915H845.891ZM823.68 324.417H832.976V382.091C832.976 384.718 833.355 386.687 834.117 388.001C834.903 389.286 835.904 390.155 837.11 390.6C838.345 391.02 839.642 391.23 841.009 391.23C842.034 391.23 842.874 391.176 843.528 391.073C844.183 390.942 844.71 390.835 845.105 390.756L846.995 399.109C846.365 399.344 845.484 399.583 844.356 399.817C843.228 400.081 841.795 400.213 840.062 400.213C837.439 400.213 834.866 399.649 832.346 398.52C829.852 397.387 827.777 395.67 826.122 393.359C824.495 391.045 823.68 388.133 823.68 384.611V324.417ZM869.165 363.021V399.426H859.873V338.915H868.848V348.367H869.638C871.055 345.295 873.208 342.828 876.094 340.962C878.984 339.071 882.71 338.124 887.28 338.124C891.376 338.124 894.958 338.964 898.029 340.645C901.101 342.301 903.493 344.821 905.197 348.211C906.906 351.572 907.758 355.826 907.758 360.974V399.426H898.462V361.605C898.462 356.852 897.231 353.149 894.761 350.497C892.294 347.815 888.906 346.477 884.6 346.477C881.635 346.477 878.984 347.119 876.646 348.408C874.336 349.693 872.512 351.572 871.174 354.043C869.836 356.51 869.165 359.504 869.165 363.021ZM950.102 400.686C944.272 400.686 939.245 399.397 935.017 396.823C930.817 394.224 927.573 390.6 925.292 385.95C923.032 381.275 921.904 375.839 921.904 369.64C921.904 363.442 923.032 357.98 925.292 353.252C927.573 348.499 930.752 344.796 934.819 342.144C938.916 339.463 943.695 338.124 949.155 338.124C952.304 338.124 955.417 338.651 958.488 339.702C961.559 340.752 964.355 342.457 966.874 344.821C969.398 347.161 971.403 350.258 972.902 354.121C974.396 357.98 975.145 362.733 975.145 368.38V372.321H928.52V364.286H965.693C965.693 360.871 965.013 357.824 963.647 355.142C962.309 352.465 960.39 350.352 957.899 348.8C955.429 347.251 952.514 346.477 949.155 346.477C945.453 346.477 942.25 347.395 939.545 349.236C936.869 351.049 934.807 353.413 933.362 356.324C931.921 359.24 931.196 362.367 931.196 365.703V371.061C931.196 375.629 931.987 379.504 933.559 382.68C935.161 385.835 937.38 388.236 940.217 389.891C943.053 391.518 946.347 392.334 950.102 392.334C952.543 392.334 954.746 391.992 956.718 391.308C958.71 390.6 960.431 389.55 961.876 388.157C963.317 386.741 964.433 384.978 965.223 382.877L974.203 385.398C973.256 388.446 971.667 391.127 969.435 393.438C967.204 395.723 964.449 397.507 961.164 398.796C957.883 400.056 954.194 400.686 950.102 400.686ZM989.283 399.426V338.915H998.262V348.054H998.892C999.996 345.06 1001.99 342.63 1004.88 340.764C1007.76 338.899 1011.02 337.968 1014.64 337.968C1015.33 337.968 1016.18 337.98 1017.2 338.009C1018.23 338.034 1019 338.075 1019.53 338.124V347.581C1019.21 347.502 1018.49 347.383 1017.36 347.226C1016.26 347.041 1015.09 346.95 1013.86 346.95C1010.91 346.95 1008.29 347.568 1005.98 348.8C1003.7 350.011 1001.89 351.691 1000.55 353.845C999.234 355.97 998.575 358.4 998.575 361.131V399.426H989.283Z" fill="white"/>
</svg>
