<?xml version="1.0" encoding="UTF-8"?>
<svg id="Camada_1" data-name="Camada 1" xmlns="http://www.w3.org/2000/svg" viewBox="0 0 1080 1080">
  <defs>
    <style>
      .cls-1 {
        fill: #ed1131;
      }

      .cls-2 {
        fill: #fff;
      }
    </style>
  </defs>
  <g>
    <polygon class="cls-1" points="162.6 651.12 429.7 651.12 429.7 917.4 540.82 806.28 540.82 540 273.72 540 162.6 651.12"/>
    <polygon class="cls-2" points="539.16 273.72 428.04 162.6 162.6 162.6 162.6 428.88 273.72 540 273.72 273.72 539.16 273.72"/>
    <polygon class="cls-2" points="917.4 162.6 651.96 162.6 540.84 273.72 806.28 273.72 806.28 540 917.4 428.88 917.4 162.6"/>
    <polygon class="cls-2" points="806.28 540 806.28 806.28 540.84 806.28 651.96 917.4 917.4 917.4 917.4 651.12 806.28 540"/>
  </g>
  <path class="cls-1" d="M248.04,829.66h90.45l47.02-49.61v-82.7h-85.83c-17.21,17.21-34.43,34.43-51.64,51.64v80.68Z"/>
</svg>