<?xml version="1.0" encoding="UTF-8"?>
<svg id="Camada_1" data-name="Camada 1" xmlns="http://www.w3.org/2000/svg" viewBox="110 374 1713 416">
  <defs>
    <style>
      .cls-1 {
        fill: #fff;
      }
    </style>
  </defs>
  <g>
    <path class="cls-1" d="M684.52,474.22h114.53v19.45c-.05,61.85-50.07,111.46-114.53,111.46s-114.53-48.93-114.53-111.57,50.78-111.57,114.53-111.57c39.47,0,73.93,18.49,94.49,47.61l-23.65,15.91-11.72,7.89c-12.67-18.3-33.8-31.01-59.11-31.01-39.66,0-71.91,32.61-71.91,71.17s32.62,71.17,71.91,71.17c33.22,0,60.38-22.57,69-51.61h-69v-38.89Z"/>
    <path class="cls-1" d="M936.16,563.39v38.92h-123.43v-161.03l31-56.55h90.58v38.92h-80.06v49.67h77.46v38.92h-77.46v51.15h81.91Z"/>
    <path class="cls-1" d="M1142.07,384.36v217.95h-46.01l-101.52-154.9v154.9h-41.51v-161.01h37.51l-37.31-56.94h45.89l101.43,154.78v-154.78h41.51Z"/>
    <path class="cls-1" d="M1340.91,384.74v121.57c0,61.9-43.73,98.97-88.22,98.97s-88.58-40.4-88.58-97.48v-123.06h41.51v121.95c0,40.77,24.83,58.19,47.44,58.19,25.21,0,46.33-22.98,46.33-59.68v-120.47h41.51Z"/>
    <path class="cls-1" d="M1428.85,423.27v140.14h34.19v38.9h-109.88v-38.9h34.19v-140.14h-34.19v-38.91h109.88v38.91h-34.19Z"/>
    <path class="cls-1" d="M1666.04,384.36v217.95h-46.01l-101.52-154.9v154.9h-41.51v-161.01h37.51l-37.31-56.94h45.89l101.43,154.78v-154.78h41.51Z"/>
    <path class="cls-1" d="M1813.07,563.39v38.92h-123.43v-161.03l31-56.55h90.58v38.92h-80.06v49.67h77.46v38.92h-77.46v51.15h81.91Z"/>
  </g>
  <g>
    <path class="cls-1" d="M580.53,655.23h37.16c10.39,0,19.84,2.42,28.34,7.24,8.5,4.83,15.17,11.44,20,19.84,4.83,8.4,7.24,17.74,7.24,28.03s-2.42,19.63-7.24,28.03c-4.83,8.4-11.5,15.01-20,19.84-8.5,4.83-17.95,7.24-28.34,7.24h-37.16v-110.22ZM641.31,751.12c7.14-4.09,12.75-9.74,16.85-16.93,4.09-7.19,6.14-15.14,6.14-23.86s-2.05-16.66-6.14-23.86c-4.09-7.19-9.71-12.83-16.85-16.93-7.14-4.09-15.06-6.14-23.78-6.14h-28.03v93.85h28.03c8.71,0,16.64-2.05,23.78-6.14Z"/>
    <path class="cls-1" d="M691.39,655.23h8.98v110.22h-8.98v-110.22Z"/>
    <path class="cls-1" d="M725.87,681.6c5.04-8.66,11.89-15.48,20.55-20.47,8.66-4.98,18.29-7.48,28.89-7.48,7.66,0,14.83,1.42,21.49,4.25,6.67,2.83,12.41,6.67,17.24,11.5,4.83,4.83,8.61,10.18,11.34,16.06l-8.19,3.62c-3.68-8.08-9.27-14.62-16.77-19.6-7.51-4.98-15.88-7.48-25.12-7.48s-17.03,2.13-24.33,6.38c-7.3,4.25-13.04,10.05-17.24,17.4-4.2,7.35-6.3,15.54-6.3,24.56s2.1,17.22,6.3,24.56c4.2,7.35,9.94,13.15,17.24,17.4,7.29,4.25,15.4,6.38,24.33,6.38s16.43-2.1,23.46-6.3c7.03-4.2,12.54-9.84,16.53-16.93,3.99-7.09,5.98-14.77,5.98-23.07l2.99,2.52h-57.63v-8.19h63.77c.73,11.34-1.31,21.6-6.14,30.78-4.83,9.19-11.63,16.4-20.39,21.65-8.77,5.25-18.29,7.87-28.58,7.87s-20.23-2.49-28.89-7.48c-8.66-4.98-15.51-11.81-20.55-20.47-5.04-8.66-7.56-18.24-7.56-28.74s2.52-20.08,7.56-28.74Z"/>
    <path class="cls-1" d="M848.69,655.23h8.98v110.22h-8.98v-110.22Z"/>
    <path class="cls-1" d="M908.21,663.42h-38.42v-8.19h85.82v8.19h-38.42v102.04h-8.98v-102.04Z"/>
    <path class="cls-1" d="M990.72,655.23h9.29l48.81,110.22h-9.45l-48.18-109.12h8.35l-48.18,109.12h-9.45l48.81-110.22ZM962.06,726.09h66.76v8.35h-66.76v-8.35Z"/>
    <path class="cls-1" d="M1062.21,655.23h8.98v102.04h57v8.19h-65.98v-110.22Z"/>
  </g>
  <polygon class="cls-1" points="120.51 644.36 256.62 644.36 256.62 780.05 313.25 723.43 313.25 587.73 177.14 587.73 120.51 644.36"/>
  <polygon class="cls-1" points="312.4 452.04 255.78 395.42 120.51 395.42 120.51 531.11 177.14 587.73 177.14 452.04 312.4 452.04"/>
  <polygon class="cls-1" points="505.15 395.42 369.88 395.42 313.26 452.04 448.52 452.04 448.52 587.73 505.15 531.11 505.15 395.42"/>
  <polygon class="cls-1" points="448.52 587.73 448.52 723.43 313.26 723.43 369.88 780.05 505.15 780.05 505.15 644.36 448.52 587.73"/>
  <path class="cls-1" d="M164.05,735.34h46.09l23.96-25.28v-42.14h-43.74c-8.77,8.77-17.54,17.54-26.32,26.32v41.11Z"/>
</svg>