<svg width="280" height="39" viewBox="0 0 280 39" fill="none" xmlns="http://www.w3.org/2000/svg">
<path d="M13.472 31.384C11.7013 31.384 10.0693 31.1067 8.576 30.552C7.104 29.976 5.81333 29.1653 4.704 28.12C3.616 27.0747 2.76267 25.848 2.144 24.44C1.54667 23.032 1.248 21.4853 1.248 19.8C1.248 18.1147 1.54667 16.568 2.144 15.16C2.76267 13.752 3.62667 12.5253 4.736 11.48C5.84533 10.4347 7.14667 9.63467 8.64 9.08C10.1333 8.504 11.776 8.216 13.568 8.216C15.552 8.216 17.3333 8.54667 18.912 9.208C20.512 9.86933 21.856 10.8293 22.944 12.088L19.616 15.16C18.8053 14.3067 17.92 13.6773 16.96 13.272C16 12.8453 14.9547 12.632 13.824 12.632C12.736 12.632 11.744 12.8027 10.848 13.144C9.952 13.4853 9.17333 13.976 8.512 14.616C7.872 15.256 7.37067 16.0133 7.008 16.888C6.66667 17.7627 6.496 18.7333 6.496 19.8C6.496 20.8453 6.66667 21.8053 7.008 22.68C7.37067 23.5547 7.872 24.3227 8.512 24.984C9.17333 25.624 9.94133 26.1147 10.816 26.456C11.712 26.7973 12.6933 26.968 13.76 26.968C14.784 26.968 15.776 26.808 16.736 26.488C17.7173 26.1467 18.6667 25.5813 19.584 24.792L22.528 28.536C21.312 29.4533 19.8933 30.1573 18.272 30.648C16.672 31.1387 15.072 31.384 13.472 31.384ZM17.792 27.864V19.448H22.528V28.536L17.792 27.864ZM31.7915 17.624H42.5755V21.656H31.7915V17.624ZM32.1755 26.84H44.3675V31H27.0235V8.6H43.9515V12.76H32.1755V26.84ZM48.1723 31V8.6H52.4603L65.6763 24.728H63.5963V8.6H68.7163V31H64.4603L51.2123 14.872H53.2923V31H48.1723ZM83.648 31.384C80.4693 31.384 77.984 30.4987 76.192 28.728C74.4 26.9573 73.504 24.4293 73.504 21.144V8.6H78.688V20.952C78.688 23.0853 79.1253 24.6213 80 25.56C80.8747 26.4987 82.1013 26.968 83.68 26.968C85.2587 26.968 86.4853 26.4987 87.36 25.56C88.2347 24.6213 88.672 23.0853 88.672 20.952V8.6H93.792V21.144C93.792 24.4293 92.896 26.9573 91.104 28.728C89.312 30.4987 86.8267 31.384 83.648 31.384ZM98.5948 31V8.6H103.779V31H98.5948ZM108.775 31V8.6H113.063L126.279 24.728H124.199V8.6H129.319V31H125.063L111.815 14.872H113.895V31H108.775ZM139.067 17.624H149.851V21.656H139.067V17.624ZM139.451 26.84H151.643V31H134.299V8.6H151.227V12.76H139.451V26.84Z" fill="white"/>
<path d="M156.096 31V8.6H164.736C167.125 8.6 169.205 9.09067 170.976 10.072C172.747 11.032 174.123 12.3547 175.104 14.04C176.107 15.704 176.608 17.624 176.608 19.8C176.608 21.976 176.107 23.9067 175.104 25.592C174.123 27.256 172.747 28.5787 170.976 29.56C169.205 30.52 167.125 31 164.736 31H156.096ZM157.184 30.008H164.672C166.869 30.008 168.779 29.5707 170.4 28.696C172.043 27.8213 173.301 26.616 174.176 25.08C175.072 23.544 175.52 21.784 175.52 19.8C175.52 17.816 175.072 16.056 174.176 14.52C173.301 12.984 172.043 11.7787 170.4 10.904C168.779 10.0293 166.869 9.592 164.672 9.592H157.184V30.008ZM181.894 31V8.6H182.982V31H181.894ZM199.911 31.128C198.247 31.128 196.7 30.8507 195.271 30.296C193.863 29.72 192.625 28.92 191.559 27.896C190.513 26.872 189.703 25.6773 189.127 24.312C188.551 22.9253 188.263 21.4213 188.263 19.8C188.263 18.1787 188.551 16.6853 189.127 15.32C189.703 13.9333 190.513 12.728 191.559 11.704C192.625 10.68 193.863 9.89067 195.271 9.336C196.7 8.76 198.247 8.472 199.911 8.472C201.468 8.472 202.929 8.71733 204.295 9.208C205.66 9.69866 206.823 10.4347 207.783 11.416L207.143 12.152C206.119 11.1707 205.009 10.4773 203.815 10.072C202.62 9.66667 201.329 9.464 199.943 9.464C198.428 9.464 197.02 9.73067 195.719 10.264C194.439 10.776 193.319 11.5013 192.359 12.44C191.399 13.3787 190.652 14.4773 190.119 15.736C189.607 16.9733 189.351 18.328 189.351 19.8C189.351 21.272 189.607 22.6373 190.119 23.896C190.652 25.1333 191.399 26.2213 192.359 27.16C193.319 28.0987 194.439 28.8347 195.719 29.368C197.02 29.88 198.428 30.136 199.943 30.136C201.308 30.136 202.599 29.9333 203.815 29.528C205.052 29.1013 206.151 28.408 207.111 27.448L207.751 28.248C206.769 29.208 205.596 29.9333 204.231 30.424C202.865 30.8933 201.425 31.128 199.911 31.128ZM206.727 28.184V19.96H207.751V28.248L206.727 28.184ZM214.676 31V8.6H215.764V31H214.676ZM227.573 31V9.592H219.349V8.6H236.853V9.592H228.629V31H227.573ZM235.43 31L245.798 8.6H246.854L257.222 31H256.038L246.086 9.336H246.566L236.614 31H235.43ZM239.014 24.44L239.43 23.512H253.126L253.542 24.44H239.014ZM260.944 31V8.6H262.032V30.008H275.152V31H260.944Z" fill="white"/>
</svg>
