<svg width="64" height="64" viewBox="-8 -8 80 80" fill="none" xmlns="http://www.w3.org/2000/svg">
<path d="M12.8827 18.0688H29.6921L31.3455 18.3444L33.1367 18.8267L34.7901 19.5156L35.8924 20.1356L37.0635 20.9623L37.9591 21.7201L38.648 22.3401L39.3369 23.0979L40.1636 24.2002L40.8525 25.3024L41.4037 26.4047L42.0237 28.0581L42.3681 29.2292C42.3681 29.2292 42.5823 30.3575 42.6437 31.0893C42.7246 32.0544 42.6437 33.5694 42.6437 33.5694L42.437 34.8783L42.1615 35.7739H35.9612H34.9279H34.4456L34.7901 35.2917L35.2034 34.3272L35.479 33.0871V31.5026L35.2723 30.4004L34.859 29.2981L34.239 28.1959L33.6878 27.507L32.93 26.7491L31.9656 26.1291L31.07 25.7158L29.9677 25.3713L29.0721 25.2335H13.5027L12.1249 25.5091L10.8159 26.0602L9.85145 26.6803L9.16254 27.3003L8.47363 28.127L7.9225 29.0226L7.50915 30.1248L7.23358 31.2271L7.16469 32.2605L7.30248 33.5694L7.57804 34.6028L7.99139 35.6361L8.47363 36.3939L9.09365 37.1517L9.57589 37.634L10.3337 38.1851L11.436 38.7362L12.4693 39.0807C12.4693 39.0807 13.097 39.2182 13.5027 39.2874C15.7306 39.6673 19.2896 39.494 19.2896 39.494C19.2896 39.494 19.9994 40.8241 20.5296 41.6297C20.8374 42.0973 21.3563 42.8008 21.3563 42.8008L22.1141 43.7653L22.9408 44.6609L23.4919 45.212L24.2497 45.832L25.0764 46.5209H24.9386H13.916L11.9871 46.3143L10.127 45.9009L8.74919 45.4187L7.64693 44.8676L6.26911 44.1098L5.30463 43.3519L4.34015 42.5253L3.72013 41.9052L3.10011 41.1474L2.3423 40.1141L1.65339 38.9429L0.964478 37.4962L0.55113 36.2561L0.137783 34.3272L0 33.0183V31.296L0.137783 30.0559L0.55113 28.2648L1.03337 26.8869L1.65339 25.578L2.3423 24.4068L2.96233 23.5802L3.58235 22.8223L4.34015 21.9957L5.30463 21.169L6.338 20.4112L7.85361 19.5156L8.95587 19.0333L10.1959 18.62L11.9871 18.2066L12.8827 18.0688Z" fill="white"/>
<path d="M39.0614 18L51.0484 18.0689C51.0484 18.0689 52.7009 18.3437 52.7018 18.3445L54.493 18.8267L56.1464 19.5156L57.662 20.4112L58.7643 21.2379L59.591 21.9957L60.6243 23.0291L61.451 24.1313L62.1399 25.2336L63.0355 27.0936L63.5866 28.747L63.8622 30.1938L64 31.916V32.8116L63.8622 34.3961L63.5178 36.1184L63.1733 37.1518L62.4155 38.8052L61.7955 39.9074L60.8999 41.1475L59.6598 42.5253L58.902 43.2142L57.7998 44.0409L56.3531 44.8676L55.0441 45.4876L53.8041 45.901L51.8751 46.3143L49.9462 46.521H35.3412L33.3434 46.3143L32.0344 46.0388L30.7944 45.6943L29.4855 45.1432L27.8321 44.2476L27.0743 43.6964L26.3854 43.1453L25.4898 42.3186L24.8697 41.6986L24.1119 40.7341L23.423 39.7008L22.803 38.5985L22.2519 37.3584L21.9074 36.3251L21.563 34.8095L21.3563 33.0872V31.4338L21.563 29.9182L21.7696 28.8848L21.8058 28.747H28.7277H29.3477L29.2099 28.9537C29.2099 28.9537 29.1679 29.0167 29.141 29.0571C29.1276 29.0772 29.0721 29.1604 29.1066 29.1087C29.141 29.0571 29.0721 29.1604 29.0721 29.1604C29.0721 29.1604 29.0616 29.1971 29.0549 29.2207C29.0482 29.2442 29.0377 29.2809 29.0377 29.2809L29.0032 29.4015L28.9343 29.6426L28.7966 30.1249L28.5899 31.2271L28.521 32.0538V32.7427L28.6588 33.7761L29.0032 34.9473L29.4855 35.9117L30.1055 36.7384L30.7255 37.4273L31.5522 38.1163L32.2411 38.5296L33.55 39.0118L34.7212 39.2874H50.5662L52.0129 38.9429L53.4596 38.3229L54.2863 37.7029L55.0441 37.014L55.733 36.0495L56.2842 35.085L56.6286 34.0517L56.8353 32.8116V31.916L56.6286 30.4693L56.1464 29.1604L55.4575 28.0581L54.8375 27.3003L54.0797 26.6114L53.1841 26.0603L51.8751 25.5092L51.0484 25.3025C51.0484 25.3025 50.7128 25.2584 50.4973 25.2336C48.2253 24.972 44.6415 25.1647 44.6415 25.1647L44.4865 24.6825L44.2626 24.2002L44.0387 23.718L43.9526 23.5113L43.8148 23.2357L43.6082 22.9257L43.4015 22.6157L42.9882 21.9957L42.2992 21.169L41.6103 20.3423L40.7836 19.5156L40.2325 18.9645L39.5436 18.4133L38.9925 18H39.0614Z" fill="white"/>
</svg>
